<?xml version="1.0" encoding="UTF-8" standalone="no"?><!-- Generator: Gravit.io --><svg xmlns="http://www.w3.org/2000/svg" xmlns:xlink="http://www.w3.org/1999/xlink" style="isolation:isolate" viewBox="0 0 24 24" width="24pt" height="24pt"><defs><clipPath id="_clipPath_aOAkogOd3hIEhjzDgnYOPiYhGB0WWQhE"><rect width="24" height="24"/></clipPath></defs><g clip-path="url(#_clipPath_aOAkogOd3hIEhjzDgnYOPiYhGB0WWQhE)"><g style="mix-blend-mode:add;"><mask id="_mask_l4Rw9FbptpkdLYlDZVmPrmuUaZbwxP7a" x="-200%" y="-200%" width="400%" height="400%"><rect x="-200%" y="-200%" width="400%" height="400%" style="fill:white;"/><path d=" M 1.125 14.391 C 0.975 14.496 0.958 14.678 1.085 14.8 L 6.137 19.615 C 6.205 19.679 6.304 19.717 6.408 19.717 C 6.412 19.717 6.416 19.717 6.42 19.717 C 6.528 19.714 6.629 19.671 6.694 19.601 L 14.231 11.464 C 14.349 11.336 14.318 11.155 14.16 11.059 C 14.002 10.962 13.778 10.987 13.661 11.116 L 6.391 18.964 L 1.628 14.424 C 1.5 14.302 1.274 14.288 1.125 14.391 Z " fill="black" stroke="none"/></mask><path d=" M 1.125 14.391 C 0.975 14.496 0.958 14.678 1.085 14.8 L 6.137 19.615 C 6.205 19.679 6.304 19.717 6.408 19.717 C 6.412 19.717 6.416 19.717 6.42 19.717 C 6.528 19.714 6.629 19.671 6.694 19.601 L 14.231 11.464 C 14.349 11.336 14.318 11.155 14.16 11.059 C 14.002 10.962 13.778 10.987 13.661 11.116 L 6.391 18.964 L 1.628 14.424 C 1.5 14.302 1.274 14.288 1.125 14.391 Z " fill="rgb(115,131,191)" mask="url(#_mask_l4Rw9FbptpkdLYlDZVmPrmuUaZbwxP7a)" vector-effect="non-scaling-stroke" stroke-width="1" stroke="rgb(115,131,191)" stroke-linejoin="miter" stroke-linecap="butt" stroke-miterlimit="4"/><path d=" M 1.125 14.391 C 0.975 14.496 0.958 14.678 1.085 14.8 L 6.137 19.615 C 6.205 19.679 6.304 19.717 6.408 19.717 C 6.412 19.717 6.416 19.717 6.42 19.717 C 6.528 19.714 6.629 19.671 6.694 19.601 L 14.231 11.464 C 14.349 11.336 14.318 11.155 14.16 11.059 C 14.002 10.962 13.778 10.987 13.661 11.116 L 6.391 18.964 L 1.628 14.424 C 1.5 14.302 1.274 14.288 1.125 14.391 Z " fill="rgb(115,131,191)"/><defs><filter id="FG17x5J8OBnfAZPdHRESXsb707jQuwhp" x="-200%" y="-200%" width="400%" height="400%" filterUnits="objectBoundingBox" color-interpolation-filters="sRGB"><feGaussianBlur xmlns="http://www.w3.org/2000/svg" stdDeviation="0"/></filter></defs><g filter="url(#FG17x5J8OBnfAZPdHRESXsb707jQuwhp)"><mask id="_mask_NskGkuA87rTNjvJBe5T7SjfscF1aeELH" x="-200%" y="-200%" width="400%" height="400%"><rect x="-200%" y="-200%" width="400%" height="400%" style="fill:white;"/><path d=" M 20.833 11.112 C 21.033 11.28 21.056 11.575 20.887 11.771 L 19.253 13.663 L 17.347 15.867 L 14.162 19.552 C 14.071 19.656 13.94 19.717 13.8 19.717 C 13.795 19.717 13.791 19.717 13.785 19.717 C 13.641 19.712 13.507 19.644 13.42 19.53 L 10.906 16.522 C 10.748 16.315 10.696 16.022 10.906 15.867 C 11.114 15.711 11.508 15.752 11.665 15.959 L 13.823 18.501 L 19.138 12.352 L 20.164 11.165 C 20.336 10.968 20.635 10.944 20.833 11.112 Z " fill="black" stroke="none"/></mask><path d=" M 20.833 11.112 C 21.033 11.28 21.056 11.575 20.887 11.771 L 19.253 13.663 L 17.347 15.867 L 14.162 19.552 C 14.071 19.656 13.94 19.717 13.8 19.717 C 13.795 19.717 13.791 19.717 13.785 19.717 C 13.641 19.712 13.507 19.644 13.42 19.53 L 10.906 16.522 C 10.748 16.315 10.696 16.022 10.906 15.867 C 11.114 15.711 11.508 15.752 11.665 15.959 L 13.823 18.501 L 19.138 12.352 L 20.164 11.165 C 20.336 10.968 20.635 10.944 20.833 11.112 Z " fill="rgb(115,131,191)" mask="url(#_mask_NskGkuA87rTNjvJBe5T7SjfscF1aeELH)" vector-effect="non-scaling-stroke" stroke-width="1" stroke="rgb(115,131,191)" stroke-linejoin="miter" stroke-linecap="butt" stroke-miterlimit="4"/><path d=" M 20.833 11.112 C 21.033 11.28 21.056 11.575 20.887 11.771 L 19.253 13.663 L 17.347 15.867 L 14.162 19.552 C 14.071 19.656 13.94 19.717 13.8 19.717 C 13.795 19.717 13.791 19.717 13.785 19.717 C 13.641 19.712 13.507 19.644 13.42 19.53 L 10.906 16.522 C 10.748 16.315 10.696 16.022 10.906 15.867 C 11.114 15.711 11.508 15.752 11.665 15.959 L 13.823 18.501 L 19.138 12.352 L 20.164 11.165 C 20.336 10.968 20.635 10.944 20.833 11.112 Z " fill="rgb(115,131,191)"/></g></g></g></svg>