<?xml version="1.0" encoding="UTF-8" standalone="no"?><!-- Generator: Gravit.io --><svg xmlns="http://www.w3.org/2000/svg" xmlns:xlink="http://www.w3.org/1999/xlink" style="isolation:isolate" viewBox="0 0 24 24" width="24pt" height="24pt"><defs><clipPath id="_clipPath_5DeD9OTJt7156a5cJN1v7oRKdAsXt8pB"><rect width="24" height="24"/></clipPath></defs><g clip-path="url(#_clipPath_5DeD9OTJt7156a5cJN1v7oRKdAsXt8pB)"><g><g><mask id="_mask_rwLDSKZAFDp4lSgc4JPTpEWHnWVtWPsO" x="-200%" y="-200%" width="400%" height="400%"><rect x="-200%" y="-200%" width="400%" height="400%" style="fill:white;"/><path d=" M 15.459 13 C 16.226 12.236 16.574 11.846 17 11.143 C 17.629 10.105 17.631 9.006 18 8 C 18.369 6.994 14.75 13.429 9.5 13.429 L 9.5 11.143 L 5 14.571 L 9.5 18 L 9.5 15.714 C 11.926 15.714 14.087 14.366 15.459 13 Z " fill="black" stroke="none"/></mask><path d=" M 15.459 13 C 16.226 12.236 16.574 11.846 17 11.143 C 17.629 10.105 17.631 9.006 18 8 C 18.369 6.994 14.75 13.429 9.5 13.429 L 9.5 11.143 L 5 14.571 L 9.5 18 L 9.5 15.714 C 11.926 15.714 14.087 14.366 15.459 13 Z " fill="none" mask="url(#_mask_rwLDSKZAFDp4lSgc4JPTpEWHnWVtWPsO)" vector-effect="non-scaling-stroke" stroke-width="3" stroke="rgb(195,195,195)" stroke-linejoin="miter" stroke-linecap="butt" stroke-miterlimit="4"/><path d=" M 15.459 13 C 16.226 12.236 16.574 11.846 17 11.143 C 17.629 10.105 17.631 9.006 18 8 C 18.369 6.994 14.75 13.429 9.5 13.429 L 9.5 11.143 L 5 14.571 L 9.5 18 L 9.5 15.714 C 11.926 15.714 14.087 14.366 15.459 13 Z " fill="none"/></g></g></g></svg>