<?xml version="1.0" encoding="UTF-8" standalone="no"?><!-- Generator: Gravit.io --><svg xmlns="http://www.w3.org/2000/svg" xmlns:xlink="http://www.w3.org/1999/xlink" style="isolation:isolate" viewBox="711.965 573.555 57.504 57.384" width="57.504pt" height="57.384pt"><defs><clipPath id="_clipPath_doTbwA7C1oesYqcNJrQnOS0eoT0kDsdS"><rect x="711.965" y="573.555" width="57.504" height="57.384"/></clipPath></defs><g clip-path="url(#_clipPath_doTbwA7C1oesYqcNJrQnOS0eoT0kDsdS)"><g><g><g><path d=" M 713.2 626.068 C 713.207 626.147 713.214 626.226 713.214 626.226 C 713.221 626.304 713.221 626.304 713.227 626.383 C 713.234 626.461 713.277 626.504 713.283 626.583 C 713.29 626.661 713.29 626.661 713.297 626.74 C 713.304 626.819 713.346 626.861 713.353 626.94 C 713.396 626.983 713.36 627.019 713.403 627.061 C 713.409 627.14 713.452 627.183 713.501 627.304 C 713.544 627.346 713.508 627.382 713.551 627.425 C 713.558 627.504 713.643 627.589 713.65 627.668 L 713.692 627.71 C 713.742 627.832 713.784 627.874 713.87 627.96 L 713.912 628.002 C 713.998 628.088 714.004 628.166 714.09 628.251 L 714.133 628.294 C 714.218 628.38 714.303 628.465 714.389 628.55 C 714.474 628.636 714.559 628.721 714.645 628.806 L 714.687 628.849 C 714.773 628.934 714.815 628.977 714.936 629.026 L 714.979 629.069 C 715.065 629.154 715.143 629.161 715.228 629.246 L 715.271 629.289 C 715.35 629.296 715.435 629.381 715.514 629.388 C 715.556 629.43 715.592 629.395 715.635 629.437 C 715.713 629.444 715.799 629.53 715.877 629.536 C 715.92 629.579 715.956 629.543 715.999 629.586 C 716.077 629.592 716.12 629.635 716.199 629.642 C 716.241 629.684 716.277 629.649 716.356 629.655 C 716.434 629.662 716.477 629.705 716.556 629.711 C 716.634 629.718 716.634 629.718 716.713 629.725 C 716.792 629.732 716.87 629.738 716.87 629.738 L 716.949 629.745 L 758.088 630.937 C 758.91 630.968 759.662 630.643 760.165 630.14 C 760.776 629.529 761.052 628.656 760.928 627.67 C 760.652 625.813 758.958 624.263 757.121 624.222 L 724.751 623.393 L 768.686 579.458 C 769.872 578.273 769.689 576.151 768.281 574.742 C 766.873 573.334 764.751 573.152 763.565 574.337 L 719.63 618.273 L 718.68 585.853 C 718.639 584.016 717.09 582.323 715.233 582.046 C 713.376 581.77 711.925 583.049 711.966 584.886 L 713.193 625.99 C 713.236 626.032 713.2 626.068 713.2 626.068 Z " fill="rgb(255,255,255)"/></g></g></g></g></svg>