<?xml version="1.0" encoding="UTF-8" standalone="no"?><!-- Generator: Gravit.io --><svg xmlns="http://www.w3.org/2000/svg" xmlns:xlink="http://www.w3.org/1999/xlink" style="isolation:isolate" viewBox="708.57 572.392 57.624 57.248" width="57.624pt" height="57.248pt"><defs><clipPath id="_clipPath_useEMxo8W0YzXueU8LxxeeCU714VeOAQ"><rect x="708.57" y="572.392" width="57.624" height="57.248"/></clipPath></defs><g clip-path="url(#_clipPath_useEMxo8W0YzXueU8LxxeeCU714VeOAQ)"><g><g><g><path d=" M 765.679 578.047 C 765.673 577.969 765.668 577.89 765.668 577.89 C 765.662 577.811 765.662 577.811 765.657 577.732 C 765.652 577.654 765.61 577.61 765.604 577.532 C 765.599 577.453 765.599 577.453 765.594 577.374 C 765.588 577.295 765.546 577.252 765.541 577.173 C 765.499 577.13 765.536 577.095 765.494 577.051 C 765.488 576.972 765.446 576.929 765.399 576.807 C 765.357 576.763 765.394 576.728 765.352 576.685 C 765.346 576.606 765.262 576.519 765.257 576.44 L 765.215 576.397 C 765.168 576.275 765.126 576.232 765.042 576.145 L 765 576.101 C 764.916 576.015 764.911 575.936 764.827 575.849 L 764.785 575.806 C 764.701 575.719 764.618 575.632 764.534 575.545 C 764.45 575.458 764.366 575.372 764.282 575.285 L 764.24 575.241 C 764.156 575.155 764.115 575.111 763.994 575.06 L 763.952 575.016 C 763.868 574.929 763.79 574.921 763.706 574.834 L 763.664 574.791 C 763.586 574.783 763.502 574.696 763.423 574.688 C 763.382 574.645 763.345 574.68 763.303 574.636 C 763.225 574.628 763.141 574.541 763.062 574.533 C 763.02 574.49 762.984 574.525 762.942 574.482 C 762.864 574.474 762.822 574.43 762.743 574.422 C 762.701 574.379 762.665 574.414 762.586 574.406 C 762.508 574.398 762.466 574.354 762.387 574.346 C 762.309 574.338 762.309 574.338 762.23 574.33 C 762.152 574.322 762.073 574.314 762.073 574.314 L 761.995 574.306 L 720.882 572.396 C 720.061 572.35 719.303 572.663 718.792 573.157 C 718.171 573.757 717.879 574.625 717.986 575.613 C 718.23 577.475 719.896 579.054 721.732 579.127 L 754.083 580.52 L 709.388 623.682 C 708.182 624.847 708.327 626.972 709.71 628.404 C 711.094 629.837 713.212 630.056 714.418 628.891 L 759.113 585.73 L 759.498 618.161 C 759.506 619.998 761.026 621.719 762.878 622.028 C 764.73 622.336 766.203 621.082 766.194 619.245 L 765.684 578.126 C 765.642 578.083 765.679 578.047 765.679 578.047 Z " fill="rgb(255,255,255)"/></g></g></g></g></svg>