<?xml version="1.0" encoding="UTF-8" standalone="no"?><!-- Generator: Gravit.io --><svg xmlns="http://www.w3.org/2000/svg" xmlns:xlink="http://www.w3.org/1999/xlink" style="isolation:isolate" viewBox="0 0 15.008 18.96" width="15.008pt" height="18.96pt"><defs><clipPath id="_clipPath_V344pklt2UvtlTe1xqy7Uux4GooGGY8o"><rect width="15.008" height="18.96"/></clipPath></defs><g clip-path="url(#_clipPath_V344pklt2UvtlTe1xqy7Uux4GooGGY8o)"><clipPath id="_clipPath_vChYT6hudiNy26Bakgimvid7upvQoC6T"><rect x="0" y="0" width="15.008" height="18.96" transform="matrix(1,0,0,1,0,0)" fill="rgb(255,255,255)"/></clipPath><g clip-path="url(#_clipPath_vChYT6hudiNy26Bakgimvid7upvQoC6T)"><g><clipPath id="_clipPath_H4ws1GtyK0HExpTF8lhAT10L2nzFWL91"><rect x="0" y="0" width="15.008" height="18.96" transform="matrix(1,0,0,1,0,0)" fill="rgb(255,255,255)"/></clipPath><g clip-path="url(#_clipPath_H4ws1GtyK0HExpTF8lhAT10L2nzFWL91)"><g><g><path d=" M 1.5 2.15 M 0.5 2.15 C 0.5 1.82 0.599 1.497 0.784 1.224 C 1.296 0.47 2.322 0.273 3.076 0.785 L 13.732 8.015 C 13.917 8.141 14.077 8.301 14.202 8.486 C 14.751 9.295 14.541 10.396 13.732 10.945 L 3.076 18.175 C 2.803 18.361 2.48 18.46 2.15 18.46 C 1.238 18.46 0.5 17.721 0.5 16.81 L 0.5 2.15 Z " fill="rgb(255,255,255)" vector-effect="non-scaling-stroke" stroke-width="1" stroke="rgb(0,0,0)" stroke-opacity="10000" stroke-linejoin="miter" stroke-linecap="butt" stroke-miterlimit="4"/></g></g></g></g></g></g></svg>