<?xml version="1.0" encoding="UTF-8" standalone="no"?><!-- Generator: Gravit.io --><svg xmlns="http://www.w3.org/2000/svg" xmlns:xlink="http://www.w3.org/1999/xlink" style="isolation:isolate" viewBox="0 0 361.117 300" width="361.117pt" height="300pt"><defs><clipPath id="_clipPath_QgsSIMfIbA7tTpigLmgmF3F9RzdQ0BHz"><rect width="361.117" height="300"/></clipPath></defs><g clip-path="url(#_clipPath_QgsSIMfIbA7tTpigLmgmF3F9RzdQ0BHz)"><g><g><g><path d=" M 64.975 54.052 C 120.24 15.223 261.428 28.422 281.835 63.019 Q 302.241 97.617 281.835 143.22 C 286.148 140.283 287.582 138.483 292.937 138.483 C 298.297 138.483 299.365 140.283 303.679 143.22 Q 300.833 111.189 303.679 91.204 C 306.524 71.218 290.275 39.96 252.56 27.149 C 214.844 14.338 123.88 8.591 62.588 41.241 C -1.943 75.616 -8.546 186.774 64.975 214.19 Q 138.496 241.605 223.713 229.563 C 221.199 224.529 220.132 224.277 220.132 218.033 C 220.132 211.785 224.839 211.749 227.369 206.711 Q 125.128 224.438 70.943 198.816 C 16.757 173.194 9.71 92.88 64.975 54.052 Z  M 340.366 206.71 L 311.091 206.71 L 311.091 172.592 C 311.091 163.17 304.54 155.533 296.461 155.533 C 288.378 155.533 281.827 163.17 281.827 172.592 L 281.827 206.71 L 252.56 206.71 C 244.477 206.71 237.918 214.347 237.918 223.769 C 237.918 233.187 244.477 240.828 252.56 240.828 L 281.827 240.828 L 281.827 274.946 C 281.827 284.364 288.378 292 296.461 292 C 304.54 292 311.091 284.364 311.091 274.946 L 311.091 240.829 L 340.366 240.829 C 348.441 240.829 355 233.188 355 223.77 C 355 214.348 348.441 206.71 340.366 206.71 Z " fill="rgb(171,171,171)"/></g></g></g><text transform="matrix(1,0,0,1,77,151.809)" style="font-family:'Arial';font-weight:400;font-size:100px;font-style:italic;fill:#ababab;stroke:none;">GIF</text></g></svg>