<?xml version="1.0" encoding="UTF-8" standalone="no"?><!-- Generator: Gravit.io --><svg xmlns="http://www.w3.org/2000/svg" xmlns:xlink="http://www.w3.org/1999/xlink" style="isolation:isolate" viewBox="0 0 125.818 125.818" width="125.818pt" height="125.818pt"><defs><clipPath id="_clipPath_04ZOnWO1YXRarR1iQTXMCWCPAnP6lFZ7"><rect width="125.818" height="125.818"/></clipPath></defs><g clip-path="url(#_clipPath_04ZOnWO1YXRarR1iQTXMCWCPAnP6lFZ7)"><g><g><mask id="_mask_MERLCJsdvFrFM0jDRW6BzP68ICcaMlVG" x="-200%" y="-200%" width="400%" height="400%"><rect x="-200%" y="-200%" width="400%" height="400%" style="fill:white;"/><path d=" M 23.229 41.391 C 19.543 47.426 17.447 54.393 17.447 61.803 C 17.447 80.93 32.883 96.52 54.428 100.147 C 55.061 100.253 53.502 101.989 53.468 101.983 C 30.777 98.163 15.115 82.006 15.115 61.803 C 15.115 53.929 17.365 46.531 21.304 40.133 L 23.229 41.391 L 23.229 41.391 Z " fill="black" stroke="none"/></mask><path d=" M 23.229 41.391 C 19.543 47.426 17.447 54.393 17.447 61.803 C 17.447 80.93 32.883 96.52 54.428 100.147 C 55.061 100.253 53.502 101.989 53.468 101.983 C 30.777 98.163 15.115 82.006 15.115 61.803 C 15.115 53.929 17.365 46.531 21.304 40.133 L 23.229 41.391 L 23.229 41.391 Z " fill="rgb(171,171,171)" mask="url(#_mask_MERLCJsdvFrFM0jDRW6BzP68ICcaMlVG)" vector-effect="non-scaling-stroke" stroke-width="1" stroke="rgb(171,171,171)" stroke-linejoin="miter" stroke-linecap="butt" stroke-miterlimit="4"/><path d=" M 23.229 41.391 C 19.543 47.426 17.447 54.393 17.447 61.803 C 17.447 80.93 32.883 96.52 54.428 100.147 C 55.061 100.253 53.502 101.989 53.468 101.983 C 30.777 98.163 15.115 82.006 15.115 61.803 C 15.115 53.929 17.365 46.531 21.304 40.133 L 23.229 41.391 L 23.229 41.391 Z " fill="rgb(171,171,171)"/><mask id="_mask_tajMYJ37ZLFtKmfaS59PLDDtNQF3K3mg" x="-200%" y="-200%" width="400%" height="400%"><rect x="-200%" y="-200%" width="400%" height="400%" style="fill:white;"/><path d=" M 37.747 26.96 C 44.897 22.531 53.497 19.963 62.734 19.963 C 72.166 19.963 80.934 22.641 88.193 27.218 L 88.193 27.218 L 90.056 25.82 C 82.33 20.766 72.899 17.808 62.734 17.808 C 52.622 17.808 43.47 20.436 35.769 25.445 L 37.747 26.96 L 37.747 26.96 Z " fill="black" stroke="none"/></mask><path d=" M 37.747 26.96 C 44.897 22.531 53.497 19.963 62.734 19.963 C 72.166 19.963 80.934 22.641 88.193 27.218 L 88.193 27.218 L 90.056 25.82 C 82.33 20.766 72.899 17.808 62.734 17.808 C 52.622 17.808 43.47 20.436 35.769 25.445 L 37.747 26.96 L 37.747 26.96 Z " fill="rgb(171,171,171)" mask="url(#_mask_tajMYJ37ZLFtKmfaS59PLDDtNQF3K3mg)" vector-effect="non-scaling-stroke" stroke-width="1" stroke="rgb(171,171,171)" stroke-linejoin="miter" stroke-linecap="butt" stroke-miterlimit="4"/><path d=" M 37.747 26.96 C 44.897 22.531 53.497 19.963 62.734 19.963 C 72.166 19.963 80.934 22.641 88.193 27.218 L 88.193 27.218 L 90.056 25.82 C 82.33 20.766 72.899 17.808 62.734 17.808 C 52.622 17.808 43.47 20.436 35.769 25.445 L 37.747 26.96 L 37.747 26.96 Z " fill="rgb(171,171,171)"/><mask id="_mask_Zj8x1cSoKcAL9IyfKxUpOZWsRwnEa8m0" x="-200%" y="-200%" width="400%" height="400%"><rect x="-200%" y="-200%" width="400%" height="400%" style="fill:white;"/><path d=" M 102.63 41.247 C 106.214 47.247 108.021 54.479 108.021 61.803 C 108.021 63.158 107.947 64.496 107.801 65.814 C 106.252 79.834 96.627 91.533 82.49 97.049 C 81.502 97.435 77.864 99.334 72.344 100.593 C 68.681 101.429 68.132 102.358 54 100.147 C 53.598 100.32 49.743 100.551 50.54 100.865 C 53.505 102.489 58.021 103.202 66.813 103.535 C 72.43 102.882 76.135 101.901 79.306 100.593 C 80.397 100.267 81.466 99.908 82.513 99.518 C 99.482 93.201 110.353 78.812 110.353 61.803 C 110.353 53.864 108.184 46.965 104.185 40.529 L 102.63 41.247 Z " fill="black" stroke="none"/></mask><path d=" M 102.63 41.247 C 106.214 47.247 108.021 54.479 108.021 61.803 C 108.021 63.158 107.947 64.496 107.801 65.814 C 106.252 79.834 96.627 91.533 82.49 97.049 C 81.502 97.435 77.864 99.334 72.344 100.593 C 68.681 101.429 68.132 102.358 54 100.147 C 53.598 100.32 49.743 100.551 50.54 100.865 C 53.505 102.489 58.021 103.202 66.813 103.535 C 72.43 102.882 76.135 101.901 79.306 100.593 C 80.397 100.267 81.466 99.908 82.513 99.518 C 99.482 93.201 110.353 78.812 110.353 61.803 C 110.353 53.864 108.184 46.965 104.185 40.529 L 102.63 41.247 Z " fill="rgb(171,171,171)" mask="url(#_mask_Zj8x1cSoKcAL9IyfKxUpOZWsRwnEa8m0)" vector-effect="non-scaling-stroke" stroke-width="1" stroke="rgb(171,171,171)" stroke-linejoin="miter" stroke-linecap="butt" stroke-miterlimit="4"/><path d=" M 102.63 41.247 C 106.214 47.247 108.021 54.479 108.021 61.803 C 108.021 63.158 107.947 64.496 107.801 65.814 C 106.252 79.834 96.627 91.533 82.49 97.049 C 81.502 97.435 77.864 99.334 72.344 100.593 C 68.681 101.429 68.132 102.358 54 100.147 C 53.598 100.32 49.743 100.551 50.54 100.865 C 53.505 102.489 58.021 103.202 66.813 103.535 C 72.43 102.882 76.135 101.901 79.306 100.593 C 80.397 100.267 81.466 99.908 82.513 99.518 C 99.482 93.201 110.353 78.812 110.353 61.803 C 110.353 53.864 108.184 46.965 104.185 40.529 L 102.63 41.247 Z " fill="rgb(171,171,171)"/><mask id="_mask_Gho9Ggdcmc0VcnpT7vRLypsINtUpz6wf" x="-200%" y="-200%" width="400%" height="400%"><rect x="-200%" y="-200%" width="400%" height="400%" style="fill:white;"/><path d=" M 21.584 42.855 C 21.309 42.855 21.033 42.765 20.811 42.583 C 16.772 39.273 14.23 34.84 14.015 30.726 C 13.865 27.855 14.862 25.266 16.9 23.24 C 21.31 18.852 29.582 17.557 38.117 24.553 C 38.599 24.948 38.644 25.629 38.216 26.074 C 37.79 26.519 37.052 26.56 36.57 26.164 C 31.269 21.82 23.66 19.685 18.608 24.706 C 16.985 26.321 16.224 28.311 16.345 30.621 C 16.528 34.115 18.832 38.081 22.358 40.971 C 22.84 41.366 22.885 42.047 22.457 42.492 C 22.228 42.732 21.906 42.855 21.584 42.855 Z " fill="black" stroke="none"/></mask><path d=" M 21.584 42.855 C 21.309 42.855 21.033 42.765 20.811 42.583 C 16.772 39.273 14.23 34.84 14.015 30.726 C 13.865 27.855 14.862 25.266 16.9 23.24 C 21.31 18.852 29.582 17.557 38.117 24.553 C 38.599 24.948 38.644 25.629 38.216 26.074 C 37.79 26.519 37.052 26.56 36.57 26.164 C 31.269 21.82 23.66 19.685 18.608 24.706 C 16.985 26.321 16.224 28.311 16.345 30.621 C 16.528 34.115 18.832 38.081 22.358 40.971 C 22.84 41.366 22.885 42.047 22.457 42.492 C 22.228 42.732 21.906 42.855 21.584 42.855 Z " fill="rgb(171,171,171)" mask="url(#_mask_Gho9Ggdcmc0VcnpT7vRLypsINtUpz6wf)" vector-effect="non-scaling-stroke" stroke-width="1" stroke="rgb(171,171,171)" stroke-linejoin="miter" stroke-linecap="butt" stroke-miterlimit="4"/><path d=" M 21.584 42.855 C 21.309 42.855 21.033 42.765 20.811 42.583 C 16.772 39.273 14.23 34.84 14.015 30.726 C 13.865 27.855 14.862 25.266 16.9 23.24 C 21.31 18.852 29.582 17.557 38.117 24.553 C 38.599 24.948 38.644 25.629 38.216 26.074 C 37.79 26.519 37.052 26.56 36.57 26.164 C 31.269 21.82 23.66 19.685 18.608 24.706 C 16.985 26.321 16.224 28.311 16.345 30.621 C 16.528 34.115 18.832 38.081 22.358 40.971 C 22.84 41.366 22.885 42.047 22.457 42.492 C 22.228 42.732 21.906 42.855 21.584 42.855 Z " fill="rgb(171,171,171)"/><mask id="_mask_tWIdE16Z9ZpO5YA8FCidjT0a7CH4OZvB" x="-200%" y="-200%" width="400%" height="400%"><rect x="-200%" y="-200%" width="400%" height="400%" style="fill:white;"/><path d=" M 104.235 42.855 C 103.913 42.855 103.592 42.732 103.362 42.493 C 102.934 42.047 102.978 41.366 103.46 40.971 C 106.987 38.081 109.291 34.114 109.474 30.621 C 109.594 28.311 108.833 26.321 107.209 24.706 C 102.159 19.685 94.549 21.82 89.247 26.164 C 88.765 26.56 88.027 26.519 87.601 26.073 C 87.173 25.628 87.218 24.947 87.7 24.553 C 93.849 19.514 102.796 17.152 108.917 23.24 C 110.955 25.266 111.952 27.854 111.803 30.724 C 111.589 34.838 109.048 39.272 105.007 42.583 C 104.786 42.766 104.509 42.855 104.235 42.855 Z " fill="black" stroke="none"/></mask><path d=" M 104.235 42.855 C 103.913 42.855 103.592 42.732 103.362 42.493 C 102.934 42.047 102.978 41.366 103.46 40.971 C 106.987 38.081 109.291 34.114 109.474 30.621 C 109.594 28.311 108.833 26.321 107.209 24.706 C 102.159 19.685 94.549 21.82 89.247 26.164 C 88.765 26.56 88.027 26.519 87.601 26.073 C 87.173 25.628 87.218 24.947 87.7 24.553 C 93.849 19.514 102.796 17.152 108.917 23.24 C 110.955 25.266 111.952 27.854 111.803 30.724 C 111.589 34.838 109.048 39.272 105.007 42.583 C 104.786 42.766 104.509 42.855 104.235 42.855 Z " fill="rgb(171,171,171)" mask="url(#_mask_tWIdE16Z9ZpO5YA8FCidjT0a7CH4OZvB)" vector-effect="non-scaling-stroke" stroke-width="1" stroke="rgb(171,171,171)" stroke-linejoin="miter" stroke-linecap="butt" stroke-miterlimit="4"/><path d=" M 104.235 42.855 C 103.913 42.855 103.592 42.732 103.362 42.493 C 102.934 42.047 102.978 41.366 103.46 40.971 C 106.987 38.081 109.291 34.114 109.474 30.621 C 109.594 28.311 108.833 26.321 107.209 24.706 C 102.159 19.685 94.549 21.82 89.247 26.164 C 88.765 26.56 88.027 26.519 87.601 26.073 C 87.173 25.628 87.218 24.947 87.7 24.553 C 93.849 19.514 102.796 17.152 108.917 23.24 C 110.955 25.266 111.952 27.854 111.803 30.724 C 111.589 34.838 109.048 39.272 105.007 42.583 C 104.786 42.766 104.509 42.855 104.235 42.855 Z " fill="rgb(171,171,171)"/></g><mask id="_mask_rPB6xYRvtCQAiWm5OdHWEaFTA5qtAiDm" x="-200%" y="-200%" width="400%" height="400%"><rect x="-200%" y="-200%" width="400%" height="400%" style="fill:white;"/><path d=" M 40.099 62.483 C 39.784 62.483 39.47 62.366 39.241 62.136 C 38.808 61.7 38.834 61.027 39.301 60.624 C 39.404 60.535 41.879 58.449 46.754 58.449 C 47.397 58.449 47.92 58.931 47.92 59.526 C 47.92 60.122 47.397 60.604 46.754 60.604 C 42.855 60.604 40.964 62.141 40.885 62.205 C 40.661 62.392 40.379 62.483 40.099 62.483 Z " fill="black" stroke="none"/></mask><path d=" M 40.099 62.483 C 39.784 62.483 39.47 62.366 39.241 62.136 C 38.808 61.7 38.834 61.027 39.301 60.624 C 39.404 60.535 41.879 58.449 46.754 58.449 C 47.397 58.449 47.92 58.931 47.92 59.526 C 47.92 60.122 47.397 60.604 46.754 60.604 C 42.855 60.604 40.964 62.141 40.885 62.205 C 40.661 62.392 40.379 62.483 40.099 62.483 Z " fill="rgb(171,171,171)" mask="url(#_mask_rPB6xYRvtCQAiWm5OdHWEaFTA5qtAiDm)" vector-effect="non-scaling-stroke" stroke-width="1" stroke="rgb(171,171,171)" stroke-linejoin="miter" stroke-linecap="butt" stroke-miterlimit="4"/><path d=" M 40.099 62.483 C 39.784 62.483 39.47 62.366 39.241 62.136 C 38.808 61.7 38.834 61.027 39.301 60.624 C 39.404 60.535 41.879 58.449 46.754 58.449 C 47.397 58.449 47.92 58.931 47.92 59.526 C 47.92 60.122 47.397 60.604 46.754 60.604 C 42.855 60.604 40.964 62.141 40.885 62.205 C 40.661 62.392 40.379 62.483 40.099 62.483 Z " fill="rgb(171,171,171)"/><mask id="_mask_gH34INoCoWchOLhEhRulkRhWhsKUCM18" x="-200%" y="-200%" width="400%" height="400%"><rect x="-200%" y="-200%" width="400%" height="400%" style="fill:white;"/><path d=" M 53.41 62.489 C 53.128 62.489 52.844 62.395 52.621 62.205 C 52.529 62.129 50.636 60.604 46.753 60.604 C 46.109 60.604 45.587 60.122 45.587 59.526 C 45.587 58.931 46.109 58.449 46.753 58.449 C 51.627 58.449 54.102 60.535 54.206 60.624 C 54.676 61.03 54.702 61.712 54.262 62.147 C 54.033 62.374 53.723 62.489 53.41 62.489 Z " fill="black" stroke="none"/></mask><path d=" M 53.41 62.489 C 53.128 62.489 52.844 62.395 52.621 62.205 C 52.529 62.129 50.636 60.604 46.753 60.604 C 46.109 60.604 45.587 60.122 45.587 59.526 C 45.587 58.931 46.109 58.449 46.753 58.449 C 51.627 58.449 54.102 60.535 54.206 60.624 C 54.676 61.03 54.702 61.712 54.262 62.147 C 54.033 62.374 53.723 62.489 53.41 62.489 Z " fill="rgb(171,171,171)" mask="url(#_mask_gH34INoCoWchOLhEhRulkRhWhsKUCM18)" vector-effect="non-scaling-stroke" stroke-width="1" stroke="rgb(171,171,171)" stroke-linejoin="miter" stroke-linecap="butt" stroke-miterlimit="4"/><path d=" M 53.41 62.489 C 53.128 62.489 52.844 62.395 52.621 62.205 C 52.529 62.129 50.636 60.604 46.753 60.604 C 46.109 60.604 45.587 60.122 45.587 59.526 C 45.587 58.931 46.109 58.449 46.753 58.449 C 51.627 58.449 54.102 60.535 54.206 60.624 C 54.676 61.03 54.702 61.712 54.262 62.147 C 54.033 62.374 53.723 62.489 53.41 62.489 Z " fill="rgb(171,171,171)"/><mask id="_mask_l4vdEn2yBTtzoa2ZpcuDW6siU4YIS5bX" x="-200%" y="-200%" width="400%" height="400%"><rect x="-200%" y="-200%" width="400%" height="400%" style="fill:white;"/><path d=" M 72.409 62.483 C 72.093 62.483 71.779 62.366 71.55 62.136 C 71.117 61.7 71.143 61.027 71.61 60.624 C 71.714 60.535 74.188 58.449 79.063 58.449 C 79.707 58.449 80.229 58.931 80.229 59.526 C 80.229 60.122 79.707 60.604 79.063 60.604 C 75.165 60.604 73.273 62.141 73.194 62.205 C 72.97 62.392 72.688 62.483 72.409 62.483 Z " fill="black" stroke="none"/></mask><path d=" M 72.409 62.483 C 72.093 62.483 71.779 62.366 71.55 62.136 C 71.117 61.7 71.143 61.027 71.61 60.624 C 71.714 60.535 74.188 58.449 79.063 58.449 C 79.707 58.449 80.229 58.931 80.229 59.526 C 80.229 60.122 79.707 60.604 79.063 60.604 C 75.165 60.604 73.273 62.141 73.194 62.205 C 72.97 62.392 72.688 62.483 72.409 62.483 Z " fill="rgb(171,171,171)" mask="url(#_mask_l4vdEn2yBTtzoa2ZpcuDW6siU4YIS5bX)" vector-effect="non-scaling-stroke" stroke-width="1" stroke="rgb(171,171,171)" stroke-linejoin="miter" stroke-linecap="butt" stroke-miterlimit="4"/><path d=" M 72.409 62.483 C 72.093 62.483 71.779 62.366 71.55 62.136 C 71.117 61.7 71.143 61.027 71.61 60.624 C 71.714 60.535 74.188 58.449 79.063 58.449 C 79.707 58.449 80.229 58.931 80.229 59.526 C 80.229 60.122 79.707 60.604 79.063 60.604 C 75.165 60.604 73.273 62.141 73.194 62.205 C 72.97 62.392 72.688 62.483 72.409 62.483 Z " fill="rgb(171,171,171)"/><mask id="_mask_ZJXrRGO442hN7pEVWyGEG90HDVNSKhBH" x="-200%" y="-200%" width="400%" height="400%"><rect x="-200%" y="-200%" width="400%" height="400%" style="fill:white;"/><path d=" M 85.719 62.489 C 85.437 62.489 85.153 62.395 84.93 62.205 C 84.839 62.129 82.945 60.604 79.062 60.604 C 78.418 60.604 77.896 60.122 77.896 59.526 C 77.896 58.931 78.418 58.449 79.062 58.449 C 83.937 58.449 86.411 60.535 86.515 60.624 C 86.985 61.03 87.012 61.712 86.571 62.147 C 86.342 62.374 86.032 62.489 85.719 62.489 Z " fill="black" stroke="none"/></mask><path d=" M 85.719 62.489 C 85.437 62.489 85.153 62.395 84.93 62.205 C 84.839 62.129 82.945 60.604 79.062 60.604 C 78.418 60.604 77.896 60.122 77.896 59.526 C 77.896 58.931 78.418 58.449 79.062 58.449 C 83.937 58.449 86.411 60.535 86.515 60.624 C 86.985 61.03 87.012 61.712 86.571 62.147 C 86.342 62.374 86.032 62.489 85.719 62.489 Z " fill="rgb(171,171,171)" mask="url(#_mask_ZJXrRGO442hN7pEVWyGEG90HDVNSKhBH)" vector-effect="non-scaling-stroke" stroke-width="1" stroke="rgb(171,171,171)" stroke-linejoin="miter" stroke-linecap="butt" stroke-miterlimit="4"/><path d=" M 85.719 62.489 C 85.437 62.489 85.153 62.395 84.93 62.205 C 84.839 62.129 82.945 60.604 79.062 60.604 C 78.418 60.604 77.896 60.122 77.896 59.526 C 77.896 58.931 78.418 58.449 79.062 58.449 C 83.937 58.449 86.411 60.535 86.515 60.624 C 86.985 61.03 87.012 61.712 86.571 62.147 C 86.342 62.374 86.032 62.489 85.719 62.489 Z " fill="rgb(171,171,171)"/></g><mask id="_mask_zkAikzfmXBtg328U52yPlkM0tTXoKyqC" x="-200%" y="-200%" width="400%" height="400%"><rect x="-200%" y="-200%" width="400%" height="400%" style="fill:white;"/><path d=" M 71.465 73.12 C 71.871 73.108 72.28 73.259 72.583 73.571 C 73.158 74.16 73.153 75.099 72.569 75.677 C 72.44 75.805 69.346 78.803 63.078 78.991 C 62.251 79.016 61.559 78.365 61.534 77.537 C 61.509 76.708 62.161 76.017 62.989 75.992 C 68 75.842 70.368 73.63 70.467 73.537 C 70.747 73.269 71.105 73.131 71.465 73.12 Z " fill="black" stroke="none"/></mask><path d=" M 71.465 73.12 C 71.871 73.108 72.28 73.259 72.583 73.571 C 73.158 74.16 73.153 75.099 72.569 75.677 C 72.44 75.805 69.346 78.803 63.078 78.991 C 62.251 79.016 61.559 78.365 61.534 77.537 C 61.509 76.708 62.161 76.017 62.989 75.992 C 68 75.842 70.368 73.63 70.467 73.537 C 70.747 73.269 71.105 73.131 71.465 73.12 Z " fill="rgb(171,171,171)" mask="url(#_mask_zkAikzfmXBtg328U52yPlkM0tTXoKyqC)" vector-effect="non-scaling-stroke" stroke-width="1" stroke="rgb(171,171,171)" stroke-linejoin="miter" stroke-linecap="butt" stroke-miterlimit="4"/><path d=" M 71.465 73.12 C 71.871 73.108 72.28 73.259 72.583 73.571 C 73.158 74.16 73.153 75.099 72.569 75.677 C 72.44 75.805 69.346 78.803 63.078 78.991 C 62.251 79.016 61.559 78.365 61.534 77.537 C 61.509 76.708 62.161 76.017 62.989 75.992 C 68 75.842 70.368 73.63 70.467 73.537 C 70.747 73.269 71.105 73.131 71.465 73.12 Z " fill="rgb(171,171,171)"/><mask id="_mask_qmz1ZSeqtjHLo7v6spxhBZkQwttS8rwZ" x="-200%" y="-200%" width="400%" height="400%"><rect x="-200%" y="-200%" width="400%" height="400%" style="fill:white;"/><path d=" M 54.352 73.625 C 54.715 73.614 55.083 73.734 55.378 73.99 C 55.499 74.093 57.997 76.142 62.99 75.992 C 63.817 75.968 64.509 76.618 64.534 77.447 C 64.559 78.275 63.907 78.966 63.079 78.991 C 56.812 79.179 53.544 76.37 53.407 76.251 C 52.785 75.705 52.723 74.756 53.271 74.135 C 53.556 73.809 53.95 73.637 54.352 73.625 Z " fill="black" stroke="none"/></mask><path d=" M 54.352 73.625 C 54.715 73.614 55.083 73.734 55.378 73.99 C 55.499 74.093 57.997 76.142 62.99 75.992 C 63.817 75.968 64.509 76.618 64.534 77.447 C 64.559 78.275 63.907 78.966 63.079 78.991 C 56.812 79.179 53.544 76.37 53.407 76.251 C 52.785 75.705 52.723 74.756 53.271 74.135 C 53.556 73.809 53.95 73.637 54.352 73.625 Z " fill="rgb(171,171,171)" mask="url(#_mask_qmz1ZSeqtjHLo7v6spxhBZkQwttS8rwZ)" vector-effect="non-scaling-stroke" stroke-width="1" stroke="rgb(171,171,171)" stroke-linejoin="miter" stroke-linecap="butt" stroke-miterlimit="4"/><path d=" M 54.352 73.625 C 54.715 73.614 55.083 73.734 55.378 73.99 C 55.499 74.093 57.997 76.142 62.99 75.992 C 63.817 75.968 64.509 76.618 64.534 77.447 C 64.559 78.275 63.907 78.966 63.079 78.991 C 56.812 79.179 53.544 76.37 53.407 76.251 C 52.785 75.705 52.723 74.756 53.271 74.135 C 53.556 73.809 53.95 73.637 54.352 73.625 Z " fill="rgb(171,171,171)"/></g></svg>