<?xml version="1.0" encoding="UTF-8" standalone="no"?><!-- Generator: Gravit.io --><svg xmlns="http://www.w3.org/2000/svg" xmlns:xlink="http://www.w3.org/1999/xlink" style="isolation:isolate" viewBox="0 0 100 100" width="100pt" height="100pt"><defs><clipPath id="_clipPath_90WECOuFVWQN3YICPr3w5JpdBbHq7eta"><rect width="100" height="100"/></clipPath></defs><g clip-path="url(#_clipPath_90WECOuFVWQN3YICPr3w5JpdBbHq7eta)"><path d=" M 51.75 69.09 C 61.056 69.09 68.58 61.205 68.58 51.453 L 68.58 26.138 C 68.58 16.385 61.056 8.5 51.75 8.5 C 42.444 8.5 34.92 16.385 34.92 26.138 L 34.92 51.453 C 34.92 61.205 42.444 69.09 51.75 69.09 Z  M 38.88 49.17 L 46.8 49.17 C 47.988 49.17 48.78 48.34 48.78 47.095 C 48.78 45.85 47.988 45.02 46.8 45.02 L 38.88 45.02 L 38.88 40.87 L 46.8 40.87 C 47.988 40.87 48.78 40.04 48.78 38.795 C 48.78 37.55 47.988 36.72 46.8 36.72 L 38.88 36.72 L 38.88 32.57 L 46.8 32.57 C 47.988 32.57 48.78 31.74 48.78 30.495 C 48.78 29.25 47.988 28.42 46.8 28.42 L 38.88 28.42 L 38.88 26.138 C 38.88 18.667 44.622 12.65 51.75 12.65 C 58.878 12.65 64.62 18.667 64.62 26.138 L 64.62 28.42 L 56.7 28.42 C 55.512 28.42 54.72 29.25 54.72 30.495 C 54.72 31.533 55.71 32.57 56.7 32.57 L 64.62 32.57 L 64.62 36.72 L 56.7 36.72 C 55.512 36.72 54.72 37.55 54.72 38.795 C 54.72 39.833 55.71 40.87 56.7 40.87 L 64.62 40.87 L 64.62 45.02 L 56.7 45.02 C 55.512 45.02 54.72 45.85 54.72 47.095 C 54.72 48.133 55.71 49.17 56.7 49.17 L 64.62 49.17 L 64.62 51.453 C 64.62 58.922 58.878 64.94 51.75 64.94 C 44.622 64.94 38.88 58.922 38.88 51.453 L 38.88 49.17 Z " fill="rgb(255,255,255)"/><path d=" M 76.5 51.245 C 76.5 50.208 75.51 49.17 74.52 49.17 C 73.53 49.17 72.54 50.208 72.54 51.245 C 72.54 63.28 63.234 73.033 51.75 73.033 C 40.266 73.033 30.96 63.28 30.96 51.245 C 30.96 50.208 29.97 49.17 28.98 49.17 C 27.99 49.17 27 50.208 27 51.245 C 27 64.94 37.098 76.145 49.77 77.183 L 49.77 87.35 L 36.9 87.35 C 35.91 87.35 34.92 88.18 34.92 89.425 C 34.92 90.67 35.91 91.5 36.9 91.5 L 66.6 91.5 C 67.59 91.5 68.58 90.67 68.58 89.425 C 68.58 88.18 67.59 87.35 66.6 87.35 L 53.73 87.35 L 53.73 77.183 C 66.402 76.145 76.5 64.94 76.5 51.245 Z " fill="rgb(255,255,255)"/></g></svg>