<?xml version="1.0" encoding="UTF-8" standalone="no"?><!-- Generator: Gravit.io --><svg xmlns="http://www.w3.org/2000/svg" xmlns:xlink="http://www.w3.org/1999/xlink" style="isolation:isolate" viewBox="0 0 612.08 612.08" width="612.08pt" height="612.08pt"><defs><clipPath id="_clipPath_BvGu7jrjmjh5kAloOHVgHwlwbNNIhaYU"><rect width="612.08" height="612.08"/></clipPath></defs><g clip-path="url(#_clipPath_BvGu7jrjmjh5kAloOHVgHwlwbNNIhaYU)"><g><path d=" M 237.927 0 C 106.555 0 0.035 106.52 0.035 237.893 C 0.035 369.266 106.555 475.786 237.928 475.786 C 288.446 475.786 335.296 460.029 373.807 433.189 L 373.835 433.161 L 550.267 609.594 C 553.541 612.868 558.747 612.952 562.106 609.594 L 609.657 562.043 C 612.931 558.769 612.763 553.34 609.629 550.205 L 433.223 373.8 C 460.063 335.261 475.82 288.41 475.82 237.893 C 475.82 106.52 369.3 0 237.927 0 Z  M 237.927 419.811 C 137.452 419.811 56.009 338.368 56.009 237.893 C 56.009 137.418 137.453 55.975 237.927 55.975 C 338.401 55.975 419.845 137.418 419.845 237.893 C 419.845 338.368 338.402 419.811 237.927 419.811 Z " fill="rgb(180,188,196)"/></g></g></svg>