<?xml version="1.0" encoding="UTF-8" standalone="no"?><!-- Generator: Gravit.io --><svg xmlns="http://www.w3.org/2000/svg" xmlns:xlink="http://www.w3.org/1999/xlink" style="isolation:isolate" viewBox="0 0 24 24" width="24pt" height="24pt"><defs><clipPath id="_clipPath_2OT0wBNdlOG8PP7Uf7ezHFY2mPx84uYU"><rect width="24" height="24"/></clipPath></defs><g clip-path="url(#_clipPath_2OT0wBNdlOG8PP7Uf7ezHFY2mPx84uYU)"><clipPath id="_clipPath_o50eGzGa8GB7L72THHUOs1SamNztUJWR"><rect x="0" y="0" width="24" height="24" transform="matrix(1,0,0,1,0,0)" fill="rgb(255,255,255)"/></clipPath><g clip-path="url(#_clipPath_o50eGzGa8GB7L72THHUOs1SamNztUJWR)"><g><clipPath id="_clipPath_izvJureEfBOeHH5wszlKVXGPFXXejzXl"><rect x="0" y="0" width="24" height="24" transform="matrix(1,0,0,1,0,0)" fill="rgb(255,255,255)"/></clipPath><g clip-path="url(#_clipPath_izvJureEfBOeHH5wszlKVXGPFXXejzXl)"><g><g><clipPath id="_clipPath_tDdAczusRcs2vwxv2wimkSsYB9qnhRNZ"><rect x="0" y="0" width="24" height="24" transform="matrix(1,0,0,1,0,0)" fill="rgb(255,255,255)"/></clipPath><g clip-path="url(#_clipPath_tDdAczusRcs2vwxv2wimkSsYB9qnhRNZ)"><g><g><g><g><g><g><g><g><path d=" M 0 0 L 24 0 L 24 24 L 0 24 L 0 0 L 0 0 Z " fill-rule="evenodd" fill="none"/><path d=" M 15 9.78 C 15.763 9.78 16.475 9.567 17.082 9.197 C 18.232 8.495 19 7.227 19 5.78 C 19 3.57 17.21 1.78 15 1.78 C 12.79 1.78 11 3.57 11 5.78 C 11 7.99 12.79 9.78 15 9.78 Z  M 6 7.78 L 6 5.78 C 6 5.23 5.55 4.78 5 4.78 C 4.45 4.78 4 5.23 4 5.78 L 4 7.78 L 2 7.78 C 1.45 7.78 1 8.23 1 8.78 C 1 9.33 1.45 9.78 2 9.78 L 4 9.78 L 4 11.78 C 4 12.33 4.45 12.78 5 12.78 C 5.55 12.78 6 12.33 6 11.78 L 6 9.78 L 8 9.78 C 8.55 9.78 9 9.33 9 8.78 C 9 8.23 8.55 7.78 8 7.78 L 6 7.78 L 6 7.78 Z  M 15 11.78 C 12.33 11.78 7 13.12 7 15.78 L 7 16.78 C 7 17.33 7.45 21.484 8 21.484 L 22.308 21.484 C 22.858 21.484 23 17.33 23 16.78 L 23 15.78 C 23 13.12 17.67 11.78 15 11.78 Z " fill-rule="evenodd" fill="rgb(255,255,255)" vector-effect="non-scaling-stroke" stroke-width="1.8" stroke="rgb(118,99,243)" stroke-opacity="10000" stroke-linejoin="miter" stroke-linecap="butt" stroke-miterlimit="4"/></g></g></g></g></g></g></g></g></g></g></g></g></g></g></g></svg>