<?xml version="1.0" encoding="UTF-8" standalone="no"?><!-- Generator: Gravit.io --><svg xmlns="http://www.w3.org/2000/svg" xmlns:xlink="http://www.w3.org/1999/xlink" style="isolation:isolate" viewBox="0 0 511.105 512.001" width="511.105pt" height="512.001pt"><defs><clipPath id="_clipPath_nHEztAOy4jb5m8d8JNCzfSctP3qrdvln"><rect width="511.105" height="512.001"/></clipPath></defs><g clip-path="url(#_clipPath_nHEztAOy4jb5m8d8JNCzfSctP3qrdvln)"><clipPath id="_clipPath_vA99T127je9K8UaXVf7EKpcCrfjIO9V6"><rect x="21.108" y="36.135" width="468.888" height="439.73" transform="matrix(1,0,0,1,0,0)" fill="rgb(255,255,255)"/></clipPath><g clip-path="url(#_clipPath_vA99T127je9K8UaXVf7EKpcCrfjIO9V6)"><g><g><g><g><path d=" M 407.12 204.043 C 402.449 181.627 390.861 161.242 373.611 145.092 C 356.361 128.943 334.585 118.095 310.64 113.721 C 300.356 111.841 290.39 118.125 288.383 127.754 C 286.377 137.383 293.087 146.711 303.372 148.589 C 337.176 154.763 363.279 179.2 369.874 210.846 C 371.642 219.326 379.581 225.211 388.477 225.211 C 389.682 225.211 390.904 225.104 392.132 224.879 C 402.416 223.001 409.127 213.672 407.12 204.043 Z " fill="rgb(118,99,243)"/></g></g><g><g><path d=" M 489.875 205.267 C 484.711 162.242 463.846 121.698 431.123 91.103 C 398.401 60.508 355.066 41.026 309.101 36.245 C 298.684 35.162 289.305 42.188 288.148 51.938 C 286.991 61.689 294.496 70.47 304.911 71.554 C 382.854 79.66 443.407 136.277 452.165 209.236 C 453.255 218.31 461.466 225.016 470.996 225.016 C 471.704 225.016 472.42 224.979 473.139 224.904 C 483.553 223.807 491.046 215.017 489.875 205.267 Z " fill="rgb(118,99,243)"/></g></g><g><g><path d=" M 417.555 304.582 C 417.498 304.575 417.441 304.567 417.384 304.56 C 399.024 302.294 380.917 298.07 363.607 292.024 C 341.672 284.303 316.725 289.284 300.059 304.711 C 300.033 304.735 300.007 304.759 299.983 304.783 L 284.251 319.51 C 245.14 296.386 212 265.362 187.301 228.748 L 203.034 214.02 C 203.058 213.996 203.083 213.972 203.109 213.948 C 219.589 198.347 224.908 174.994 216.677 154.496 C 210.203 138.252 205.692 121.299 203.27 104.111 C 203.264 104.057 203.255 104.002 203.246 103.948 C 199.035 76.054 173.172 55.222 143.113 55.452 L 81.294 55.452 C 79.511 55.453 77.705 55.53 75.924 55.681 C 42.845 58.479 18.365 85.949 21.355 116.917 C 21.364 117.009 21.374 117.101 21.385 117.194 C 28.434 179.335 51.337 239.906 87.618 292.36 C 120.545 340.852 165.323 382.77 217.12 413.598 C 272.891 447.442 337.291 468.882 403.365 475.604 C 403.481 475.617 403.598 475.627 403.713 475.636 C 405.512 475.788 407.336 475.865 409.145 475.865 C 409.221 475.865 409.297 475.865 409.372 475.866 C 442.585 475.739 469.496 450.339 469.361 419.318 L 469.361 361.576 C 469.99 333.051 447.76 308.571 417.555 304.582 Z  M 431.415 361.376 L 431.415 419.39 C 431.465 430.895 421.507 440.292 409.223 440.34 C 408.567 440.336 407.916 440.316 407.264 440.266 C 347.103 434.115 288.472 414.574 237.695 383.747 C 237.646 383.717 237.597 383.687 237.547 383.658 C 190.366 355.591 149.582 317.409 119.601 273.241 C 119.572 273.197 119.543 273.154 119.512 273.109 C 86.459 225.344 65.583 170.189 59.137 113.597 C 58.107 102.189 67.145 92.093 79.34 91.062 C 79.997 91.007 80.663 90.978 81.307 90.978 L 143.198 90.978 C 143.332 90.977 143.468 90.975 143.604 90.976 C 154.632 90.976 164.083 98.624 165.662 108.856 C 168.46 128.664 173.663 148.197 181.14 166.957 C 184.185 174.542 182.231 183.162 176.161 188.935 L 150 213.427 C 143.96 219.08 142.701 227.815 146.923 234.767 C 177.965 285.875 223.229 328.25 277.822 357.311 C 285.247 361.262 294.577 360.085 300.618 354.43 L 326.774 329.942 C 332.939 324.256 342.155 322.426 350.298 325.292 C 370.297 332.278 391.166 337.148 412.324 339.768 C 423.498 341.277 431.701 350.365 431.421 360.936 C 431.417 361.083 431.415 361.229 431.415 361.376 Z " fill="rgb(118,99,243)"/></g></g></g></g></g></g></svg>