<?xml version="1.0" encoding="UTF-8" standalone="no"?><!-- Generator: Gravit.io --><svg xmlns="http://www.w3.org/2000/svg" xmlns:xlink="http://www.w3.org/1999/xlink" style="isolation:isolate" viewBox="0 0 35 24" width="35pt" height="24pt"><defs><clipPath id="_clipPath_bAddLgJ78q6ScqE9453lFykjgGizXbZa"><rect width="35" height="24"/></clipPath></defs><g clip-path="url(#_clipPath_bAddLgJ78q6ScqE9453lFykjgGizXbZa)"><clipPath id="_clipPath_ErmoIXwNGssDZENz18rypSpU26TVuXUo"><rect x="1.251" y="0.979" width="32.497" height="22.043" transform="matrix(1,0,0,1,0,0)" fill="rgb(255,255,255)"/></clipPath><g clip-path="url(#_clipPath_ErmoIXwNGssDZENz18rypSpU26TVuXUo)"><g><clipPath id="_clipPath_Pwvc8RThoZzE2aD0xZCDnOhq4jgdooXb"><rect x="1.251" y="0.979" width="32.497" height="21.486" transform="matrix(1,0,0,1,0,0)" fill="rgb(255,255,255)"/></clipPath><g clip-path="url(#_clipPath_Pwvc8RThoZzE2aD0xZCDnOhq4jgdooXb)"><g><g><clipPath id="_clipPath_f8Pb2UBB796Cq6GenzutR2UQc7we7UJZ"><rect x="1.251" y="0.979" width="32.497" height="22.043" transform="matrix(1,0,0,1,0,0)" fill="rgb(255,255,255)"/></clipPath><g clip-path="url(#_clipPath_f8Pb2UBB796Cq6GenzutR2UQc7we7UJZ)"><g><g><g><path d=" M 4.392 1.22 C 3.15 1.22 2.133 2.216 2.133 3.433 L 2.133 20.252 C 2.133 21.468 3.15 22.465 4.392 22.465 L 23.361 22.465 C 24.603 22.465 25.619 21.468 25.619 20.252 L 25.619 16.6 L 32.723 20.694 L 33.749 20.694 L 33.749 2.991 L 32.723 2.991 L 25.619 7.084 L 25.619 3.433 C 25.619 2.216 24.603 1.22 23.361 1.22 L 4.392 1.22 Z  M 4.392 2.105 L 23.361 2.105 C 24.113 2.105 24.715 2.695 24.715 3.433 L 24.715 20.252 C 24.715 20.99 24.113 21.579 23.361 21.579 L 4.392 21.579 C 3.638 21.579 3.036 20.99 3.036 20.252 L 3.036 3.433 C 3.036 2.695 3.638 2.105 4.392 2.105 Z  M 32.846 3.946 L 32.846 19.739 L 25.619 15.571 L 25.619 8.113 L 32.846 3.946 Z " fill="rgb(118,99,243)" vector-effect="non-scaling-stroke" stroke-width="1.5" stroke="rgb(118,99,243)" stroke-opacity="10000" stroke-linejoin="miter" stroke-linecap="butt" stroke-miterlimit="4"/></g></g></g></g></g></g></g></g></g></g></svg>