<?xml version="1.0" encoding="UTF-8" standalone="no"?><!-- Generator: Gravit.io --><svg xmlns="http://www.w3.org/2000/svg" xmlns:xlink="http://www.w3.org/1999/xlink" style="isolation:isolate" viewBox="0 0 44.236 44.236" width="44.236pt" height="44.236pt"><defs><clipPath id="_clipPath_Mt76WpMY8sIndKRGMm0zi9pQZmvXt5ms"><rect width="44.236" height="44.236"/></clipPath></defs><g clip-path="url(#_clipPath_Mt76WpMY8sIndKRGMm0zi9pQZmvXt5ms)"><clipPath id="_clipPath_BpbMX9NASIjnz0OC08AiPndjVjn6cKD2"><rect x="0" y="0" width="44.236" height="44.236" transform="matrix(1,0,0,1,0,0)" fill="rgb(255,255,255)"/></clipPath><g clip-path="url(#_clipPath_BpbMX9NASIjnz0OC08AiPndjVjn6cKD2)"><g><g><g><path d=" M 22.118 3.742 C 32.89 3.742 41.654 12.344 41.654 22.917 C 41.654 33.49 32.89 42.092 22.118 42.092 C 11.346 42.092 2.582 33.49 2.582 22.917 C 2.582 12.344 11.346 3.742 22.118 3.742 Z  M 22.118 40.792 C 32.16 40.792 40.329 32.773 40.329 22.917 C 40.329 13.061 32.16 5.042 22.118 5.042 C 12.077 5.042 3.907 13.061 3.907 22.917 C 3.907 32.773 12.077 40.792 22.118 40.792 Z " fill="rgb(118,99,243)" vector-effect="non-scaling-stroke" stroke-width="1" stroke="rgb(118,99,243)" stroke-linejoin="miter" stroke-linecap="butt" stroke-miterlimit="4"/><g><mask id="_mask_UnJ3o9sRgFAp1bg0XUpLVQxWXEm5zZjl" x="-200%" y="-200%" width="400%" height="400%"><rect x="-200%" y="-200%" width="400%" height="400%" style="fill:white;"/><path d=" M 21.913 19.039 C 22.279 19.039 22.576 19.468 22.576 19.996 L 22.576 21.28 L 22.576 34.841 C 22.576 35.369 22.279 35.798 21.913 35.798 C 21.547 35.798 21.251 35.369 21.251 34.841 L 21.251 19.996 C 21.251 19.468 21.547 19.039 21.913 19.039 Z " fill="black" stroke="none"/></mask><path d=" M 21.913 19.039 C 22.279 19.039 22.576 19.468 22.576 19.996 L 22.576 21.28 L 22.576 34.841 C 22.576 35.369 22.279 35.798 21.913 35.798 C 21.547 35.798 21.251 35.369 21.251 34.841 L 21.251 19.996 C 21.251 19.468 21.547 19.039 21.913 19.039 Z " fill="rgb(118,99,243)" mask="url(#_mask_UnJ3o9sRgFAp1bg0XUpLVQxWXEm5zZjl)" vector-effect="non-scaling-stroke" stroke-width="2" stroke="rgb(118,99,243)" stroke-linejoin="miter" stroke-linecap="butt" stroke-miterlimit="4"/><path d=" M 21.913 19.039 C 22.279 19.039 22.576 19.468 22.576 19.996 L 22.576 21.28 L 22.576 34.841 C 22.576 35.369 22.279 35.798 21.913 35.798 C 21.547 35.798 21.251 35.369 21.251 34.841 L 21.251 19.996 C 21.251 19.468 21.547 19.039 21.913 19.039 Z " fill="rgb(118,99,243)"/></g><g><path d=" M 21.966 9.995 C 22.774 9.995 23.432 10.641 23.432 11.434 C 23.432 11.831 23.268 12.191 23.002 12.451 C 22.737 12.712 22.37 12.873 21.966 12.873 C 21.157 12.873 20.5 12.228 20.5 11.434 C 20.5 10.641 21.157 9.995 21.966 9.995 Z  M 21.966 12.44 C 22.531 12.44 22.991 11.988 22.991 11.434 C 22.991 10.88 22.531 10.429 21.966 10.429 C 21.402 10.429 20.942 10.88 20.942 11.434 C 20.942 11.988 21.402 12.44 21.966 12.44 Z " fill="rgb(118,99,243)" vector-effect="non-scaling-stroke" stroke-width="1.5" stroke="rgb(118,99,243)" stroke-linejoin="miter" stroke-linecap="butt" stroke-miterlimit="4"/></g></g></g></g></g></g></svg>